<svg version="1.1" xmlns="http://www.w3.org/2000/svg" viewBox="0 0 920 630" width="920" height="630"><!-- svg-source:excalidraw --><metadata></metadata><defs><style class="style-fonts">
      </style></defs><rect x="0" y="0" width="920" height="630" fill="#ffffff"></rect><g transform="translate(10 10) rotate(0 190.5 17)"><text x="0" y="24.560546875" font-family="Helvetica, Segoe UI Emoji" font-size="28px" fill="#1e293b" text-anchor="start" style="white-space: pre;" direction="ltr" dominant-baseline="alphabetic">Same engine, two doors</text></g><g transform="translate(10 48) rotate(0 450 11)"><text x="0" y="15.3203125" font-family="Helvetica, Segoe UI Emoji" font-size="16px" fill="#64748b" text-anchor="start" style="white-space: pre;" direction="ltr" dominant-baseline="alphabetic">The batch CSV is a delivery artifact. The app always runs the six-column pipeline.</text></g><g stroke-opacity="0.3" fill-opacity="0.3" stroke-linecap="round" transform="translate(10 100) rotate(0 190 125)"><path d="M0 0 L380 0 L380 250 L0 250" stroke="none" stroke-width="0" fill="#f1f5f9"></path><path d="M0 0 C132.5 0, 265 0, 380 0 M380 0 C380 90.19, 380 180.39, 380 250 M380 250 C251.37 250, 122.74 250, 0 250 M0 250 C0 199.49, 0 148.98, 0 0" stroke="#475569" stroke-width="2.5" fill="none" stroke-dasharray="8 10"></path></g><g transform="translate(26 112) rotate(0 81.5 15)"><text x="0" y="21.48046875" font-family="Helvetica, Segoe UI Emoji" font-size="24px" fill="#334155" text-anchor="start" style="white-space: pre;" direction="ltr" dominant-baseline="alphabetic">Hosted demo</text></g><g stroke-opacity="0.3" fill-opacity="0.3" stroke-linecap="round" transform="translate(450 100) rotate(0 190 125)"><path d="M0 0 L380 0 L380 250 L0 250" stroke="none" stroke-width="0" fill="#f1f5f9"></path><path d="M0 0 C132.51 0, 265.01 0, 380 0 M380 0 C380 76.19, 380 152.38, 380 250 M380 250 C300.67 250, 221.33 250, 0 250 M0 250 C0 161.85, 0 73.7, 0 0" stroke="#475569" stroke-width="2.5" fill="none" stroke-dasharray="8 10"></path></g><g transform="translate(466 112) rotate(0 81.5 15)"><text x="0" y="21.48046875" font-family="Helvetica, Segoe UI Emoji" font-size="24px" fill="#334155" text-anchor="start" style="white-space: pre;" direction="ltr" dominant-baseline="alphabetic">Local batch</text></g><g stroke-linecap="round" transform="translate(60 160) rotate(0 140 30)"><path d="M0 0 L280 0 L280 60 L0 60" stroke="none" stroke-width="0" fill="#dbeafe"></path><path d="M0 0 C97.64 0, 195.28 0, 280 0 M0 0 C69.65 0, 139.3 0, 280 0 M280 0 C280 16.74, 280 33.48, 280 60 M280 0 C280 18.19, 280 36.38, 280 60 M280 60 C223.27 60, 166.53 60, 0 60 M280 60 C207.93 60, 135.86 60, 0 60 M0 60 C0 42.59, 0 25.18, 0 0 M0 60 C0 42.84, 0 25.69, 0 0" stroke="#1e40af" stroke-width="2" fill="none"></path></g><g transform="translate(60 180) rotate(0 140 10)"><text x="140" y="14.3203125" font-family="Helvetica, Segoe UI Emoji" font-size="16px" fill="#1e293b" text-anchor="middle" style="white-space: pre;" direction="ltr" dominant-baseline="alphabetic">Browser · 6-col CSV</text></g><g stroke-linecap="round" transform="translate(60 260) rotate(0 140 30)"><path d="M0 0 L280 0 L280 60 L0 60" stroke="none" stroke-width="0" fill="#e0f2fe"></path><path d="M0 0 C97.64 0, 195.28 0, 280 0 M0 0 C109.97 0, 219.94 0, 280 0 M280 0 C280 20.96, 280 41.92, 280 60 M280 0 C280 15.22, 280 30.45, 280 60 M280 60 C188.82 60, 97.64 60, 0 60 M280 60 C185.02 60, 90.04 60, 0 60 M0 60 C0 37.71, 0 15.41, 0 0 M0 60 C0 36.66, 0 13.32, 0 0" stroke="#0369a1" stroke-width="2" fill="none"></path></g><g transform="translate(60 280) rotate(0 140 10)"><text x="140" y="14.3203125" font-family="Helvetica, Segoe UI Emoji" font-size="16px" fill="#1e293b" text-anchor="middle" style="white-space: pre;" direction="ltr" dominant-baseline="alphabetic">Vercel · one SKU at a time</text></g><g stroke-linecap="round" transform="translate(500 160) rotate(0 140 30)"><path d="M0 0 L280 0 L280 60 L0 60" stroke="none" stroke-width="0" fill="#dbeafe"></path><path d="M0 0 C97.64 0, 195.29 0, 280 0 M0 0 C94.28 0, 188.57 0, 280 0 M280 0 C280 13.17, 280 26.35, 280 60 M280 0 C280 12.26, 280 24.52, 280 60 M280 60 C210.37 60, 140.75 60, 0 60 M280 60 C218.11 60, 156.22 60, 0 60 M0 60 C0 44.82, 0 29.65, 0 0 M0 60 C0 42.48, 0 24.96, 0 0" stroke="#1e40af" stroke-width="2" fill="none"></path></g><g transform="translate(500 180) rotate(0 140 10)"><text x="140" y="14.3203125" font-family="Helvetica, Segoe UI Emoji" font-size="16px" fill="#1e293b" text-anchor="middle" style="white-space: pre;" direction="ltr" dominant-baseline="alphabetic">cli.py batch</text></g><g stroke-linecap="round" transform="translate(500 260) rotate(0 140 30)"><path d="M0 0 L280 0 L280 60 L0 60" stroke="none" stroke-width="0" fill="#e0f2fe"></path><path d="M0 0 C97.65 0, 195.29 0, 280 0 M0 0 C78.6 0, 157.2 0, 280 0 M280 0 C280 17.39, 280 34.78, 280 60 M280 0 C280 21.29, 280 42.58, 280 60 M280 60 C175.93 60, 71.85 60, 0 60 M280 60 C195.2 60, 110.4 60, 0 60 M0 60 C0 39.94, 0 19.88, 0 0 M0 60 C0 36.3, 0 12.59, 0 0" stroke="#0369a1" stroke-width="2" fill="none"></path></g><g transform="translate(500 280) rotate(0 140 10)"><text x="140" y="14.3203125" font-family="Helvetica, Segoe UI Emoji" font-size="16px" fill="#1e293b" text-anchor="middle" style="white-space: pre;" direction="ltr" dominant-baseline="alphabetic">Workers + checkpoint</text></g><g stroke-linecap="round" transform="translate(220 410) rotate(0 200 36)"><path d="M0 0 L400 0 L400 72 L0 72" stroke="none" stroke-width="0" fill="#f3e8ff"></path><path d="M0 0 C139.5 0, 278.99 0, 400 0 M0 0 C89.88 0, 179.76 0, 400 0 M400 0 C400 25.93, 400 51.86, 400 72 M400 0 C400 21.99, 400 43.98, 400 72 M400 72 C282.11 72, 164.22 72, 0 72 M400 72 C246.13 72, 92.27 72, 0 72 M0 72 C0 56.47, 0 40.94, 0 0 M0 72 C0 50.54, 0 29.07, 0 0" stroke="#6b21a8" stroke-width="2" fill="none"></path></g><g transform="translate(220 426) rotate(0 200 20)"><text x="200" y="14.3203125" font-family="Helvetica, Segoe UI Emoji" font-size="16px" fill="#1e293b" text-anchor="middle" style="white-space: pre;" direction="ltr" dominant-baseline="alphabetic">enrich_input_row</text><text x="200" y="34.3203125" font-family="Helvetica, Segoe UI Emoji" font-size="16px" fill="#1e293b" text-anchor="middle" style="white-space: pre;" direction="ltr" dominant-baseline="alphabetic">live manufacturer fetch</text></g><g stroke-linecap="round" transform="translate(250 550) rotate(0 170 35)"><path d="M340 35 C340 36.02, 339.78 37.04, 339.35 38.05 C338.92 39.06, 338.27 40.08, 337.42 41.08 C336.56 42.08, 335.49 43.08, 334.21 44.06 C332.93 45.04, 331.44 46.02, 329.75 46.97 C328.06 47.93, 326.16 48.87, 324.07 49.79 C321.99 50.71, 319.69 51.62, 317.22 52.5 C314.75 53.38, 312.09 54.24, 309.26 55.08 C306.42 55.91, 303.4 56.72, 300.23 57.5 C297.05 58.28, 293.7 59.03, 290.21 59.75 C286.72 60.47, 283.06 61.16, 279.27 61.81 C275.49 62.47, 271.55 63.09, 267.51 63.67 C263.46 64.25, 259.28 64.8, 255 65.31 C250.72 65.82, 246.32 66.29, 241.85 66.72 C237.37 67.15, 232.78 67.54, 228.14 67.89 C223.5 68.24, 218.77 68.54, 214 68.81 C209.23 69.07, 204.38 69.29, 199.52 69.47 C194.66 69.64, 189.74 69.78, 184.82 69.87 C179.9 69.96, 174.94 70, 170 70 C165.06 70, 160.1 69.96, 155.18 69.87 C150.26 69.78, 145.34 69.64, 140.48 69.47 C135.62 69.29, 130.77 69.07, 126 68.81 C121.23 68.54, 116.5 68.24, 111.86 67.89 C107.22 67.54, 102.63 67.15, 98.15 66.72 C93.68 66.29, 89.28 65.82, 85 65.31 C80.72 64.8, 76.54 64.25, 72.49 63.67 C68.45 63.09, 64.51 62.47, 60.73 61.81 C56.94 61.16, 53.28 60.47, 49.79 59.75 C46.3 59.03, 42.95 58.28, 39.77 57.5 C36.6 56.72, 33.58 55.91, 30.74 55.08 C27.91 54.24, 25.25 53.38, 22.78 52.5 C20.31 51.62, 18.01 50.71, 15.93 49.79 C13.84 48.87, 11.94 47.93, 10.25 46.97 C8.56 46.02, 7.07 45.04, 5.79 44.06 C4.51 43.08, 3.44 42.08, 2.58 41.08 C1.73 40.08, 1.08 39.06, 0.65 38.05 C0.22 37.04, 0 36.02, 0 35 C0 33.98, 0.22 32.96, 0.65 31.95 C1.08 30.94, 1.73 29.92, 2.58 28.92 C3.44 27.92, 4.51 26.92, 5.79 25.94 C7.07 24.96, 8.56 23.98, 10.25 23.03 C11.94 22.07, 13.84 21.13, 15.93 20.21 C18.01 19.29, 20.31 18.38, 22.78 17.5 C25.25 16.62, 27.91 15.76, 30.74 14.92 C33.58 14.09, 36.6 13.28, 39.77 12.5 C42.95 11.72, 46.3 10.97, 49.79 10.25 C53.28 9.53, 56.94 8.84, 60.73 8.19 C64.51 7.53, 68.45 6.91, 72.49 6.33 C76.54 5.75, 80.72 5.2, 85 4.69 C89.28 4.18, 93.68 3.71, 98.15 3.28 C102.63 2.85, 107.22 2.46, 111.86 2.11 C116.5 1.76, 121.23 1.46, 126 1.19 C130.77 0.93, 135.62 0.71, 140.48 0.53 C145.34 0.36, 150.26 0.22, 155.18 0.13 C160.1 0.04, 165.06 0, 170 0 C174.94 0, 179.9 0.04, 184.82 0.13 C189.74 0.22, 194.66 0.36, 199.52 0.53 C204.38 0.71, 209.23 0.93, 214 1.19 C218.77 1.46, 223.5 1.76, 228.14 2.11 C232.78 2.46, 237.37 2.85, 241.85 3.28 C246.32 3.71, 250.72 4.18, 255 4.69 C259.28 5.2, 263.46 5.75, 267.51 6.33 C271.55 6.91, 275.49 7.53, 279.27 8.19 C283.06 8.84, 286.72 9.53, 290.21 10.25 C293.7 10.97, 297.05 11.72, 300.23 12.5 C303.4 13.28, 306.42 14.09, 309.26 14.92 C312.09 15.76, 314.75 16.62, 317.22 17.5 C319.69 18.38, 321.99 19.29, 324.07 20.21 C326.16 21.13, 328.06 22.07, 329.75 23.03 C331.44 23.98, 332.93 24.96, 334.21 25.94 C335.49 26.92, 336.56 27.92, 337.42 28.92 C338.27 29.92, 338.92 30.94, 339.35 31.95 C339.78 32.96, 339.89 34.49, 340 35 C340.11 35.51, 340.11 34.49, 340 35" stroke="none" stroke-width="0" fill="#dcfce7"></path><path d="M340 35 C340 36.02, 339.78 37.04, 339.35 38.05 C338.92 39.06, 338.27 40.08, 337.42 41.08 C336.56 42.08, 335.49 43.08, 334.21 44.06 C332.93 45.04, 331.44 46.02, 329.75 46.97 C328.06 47.93, 326.16 48.87, 324.07 49.79 C321.99 50.71, 319.69 51.62, 317.22 52.5 C314.75 53.38, 312.09 54.24, 309.26 55.08 C306.42 55.91, 303.4 56.72, 300.23 57.5 C297.05 58.28, 293.7 59.03, 290.21 59.75 C286.72 60.47, 283.06 61.16, 279.27 61.81 C275.49 62.47, 271.55 63.09, 267.51 63.67 C263.46 64.25, 259.28 64.8, 255 65.31 C250.72 65.82, 246.32 66.29, 241.85 66.72 C237.37 67.15, 232.78 67.54, 228.14 67.89 C223.5 68.24, 218.77 68.54, 214 68.81 C209.23 69.07, 204.38 69.29, 199.52 69.47 C194.66 69.64, 189.74 69.78, 184.82 69.87 C179.9 69.96, 174.94 70, 170 70 C165.06 70, 160.1 69.96, 155.18 69.87 C150.26 69.78, 145.34 69.64, 140.48 69.47 C135.62 69.29, 130.77 69.07, 126 68.81 C121.23 68.54, 116.5 68.24, 111.86 67.89 C107.22 67.54, 102.63 67.15, 98.15 66.72 C93.68 66.29, 89.28 65.82, 85 65.31 C80.72 64.8, 76.54 64.25, 72.49 63.67 C68.45 63.09, 64.51 62.47, 60.73 61.81 C56.94 61.16, 53.28 60.47, 49.79 59.75 C46.3 59.03, 42.95 58.28, 39.77 57.5 C36.6 56.72, 33.58 55.91, 30.74 55.08 C27.91 54.24, 25.25 53.38, 22.78 52.5 C20.31 51.62, 18.01 50.71, 15.93 49.79 C13.84 48.87, 11.94 47.93, 10.25 46.97 C8.56 46.02, 7.07 45.04, 5.79 44.06 C4.51 43.08, 3.44 42.08, 2.58 41.08 C1.73 40.08, 1.08 39.06, 0.65 38.05 C0.22 37.04, 0 36.02, 0 35 C0 33.98, 0.22 32.96, 0.65 31.95 C1.08 30.94, 1.73 29.92, 2.58 28.92 C3.44 27.92, 4.51 26.92, 5.79 25.94 C7.07 24.96, 8.56 23.98, 10.25 23.03 C11.94 22.07, 13.84 21.13, 15.93 20.21 C18.01 19.29, 20.31 18.38, 22.78 17.5 C25.25 16.62, 27.91 15.76, 30.74 14.92 C33.58 14.09, 36.6 13.28, 39.77 12.5 C42.95 11.72, 46.3 10.97, 49.79 10.25 C53.28 9.53, 56.94 8.84, 60.73 8.19 C64.51 7.53, 68.45 6.91, 72.49 6.33 C76.54 5.75, 80.72 5.2, 85 4.69 C89.28 4.18, 93.68 3.71, 98.15 3.28 C102.63 2.85, 107.22 2.46, 111.86 2.11 C116.5 1.76, 121.23 1.46, 126 1.19 C130.77 0.93, 135.62 0.71, 140.48 0.53 C145.34 0.36, 150.26 0.22, 155.18 0.13 C160.1 0.04, 165.06 0, 170 0 C174.94 0, 179.9 0.04, 184.82 0.13 C189.74 0.22, 194.66 0.36, 199.52 0.53 C204.38 0.71, 209.23 0.93, 214 1.19 C218.77 1.46, 223.5 1.76, 228.14 2.11 C232.78 2.46, 237.37 2.85, 241.85 3.28 C246.32 3.71, 250.72 4.18, 255 4.69 C259.28 5.2, 263.46 5.75, 267.51 6.33 C271.55 6.91, 275.49 7.53, 279.27 8.19 C283.06 8.84, 286.72 9.53, 290.21 10.25 C293.7 10.97, 297.05 11.72, 300.23 12.5 C303.4 13.28, 306.42 14.09, 309.26 14.92 C312.09 15.76, 314.75 16.62, 317.22 17.5 C319.69 18.38, 321.99 19.29, 324.07 20.21 C326.16 21.13, 328.06 22.07, 329.75 23.03 C331.44 23.98, 332.93 24.96, 334.21 25.94 C335.49 26.92, 336.56 27.92, 337.42 28.92 C338.27 29.92, 338.92 30.94, 339.35 31.95 C339.78 32.96, 339.89 34.49, 340 35 C340.11 35.51, 340.11 34.49, 340 35" stroke="#166534" stroke-width="2" fill="none"></path></g><g transform="translate(250 575) rotate(0 170 10)"><text x="170" y="14.3203125" font-family="Helvetica, Segoe UI Emoji" font-size="16px" fill="#1e293b" text-anchor="middle" style="white-space: pre;" direction="ltr" dominant-baseline="alphabetic">CSV · XLSX · provenance</text></g><g stroke-linecap="round"><g transform="translate(200 220) rotate(0 0 20)"><path d="M0 0 C0 13.95, 0 27.9, 0 40 M0 0 C0 12.51, 0 25.01, 0 40" stroke="#475569" stroke-width="2" fill="none"></path></g><g transform="translate(200 220) rotate(0 0 20)"><path d="M-6.84 21.21 C-4.45 27.76, -2.07 34.32, 0 40 M-6.84 21.21 C-4.7 27.08, -2.56 32.96, 0 40" stroke="#475569" stroke-width="2" fill="none"></path></g><g transform="translate(200 220) rotate(0 0 20)"><path d="M6.84 21.21 C4.45 27.76, 2.07 34.32, 0 40 M6.84 21.21 C4.7 27.08, 2.56 32.96, 0 40" stroke="#475569" stroke-width="2" fill="none"></path></g></g><mask></mask><g stroke-linecap="round"><g transform="translate(640 220) rotate(0 0 20)"><path d="M0 0 C0 13.95, 0 27.9, 0 40 M0 0 C0 15.39, 0 30.77, 0 40" stroke="#475569" stroke-width="2" fill="none"></path></g><g transform="translate(640 220) rotate(0 0 20)"><path d="M-6.84 21.21 C-4.45 27.76, -2.07 34.32, 0 40 M-6.84 21.21 C-4.21 28.44, -1.58 35.67, 0 40" stroke="#475569" stroke-width="2" fill="none"></path></g><g transform="translate(640 220) rotate(0 0 20)"><path d="M6.84 21.21 C4.45 27.76, 2.07 34.32, 0 40 M6.84 21.21 C4.21 28.44, 1.58 35.67, 0 40" stroke="#475569" stroke-width="2" fill="none"></path></g></g><mask></mask><g stroke-linecap="round"><g transform="translate(200 320) rotate(0 110 45)"><path d="M0 0 C0 17.44, 0 34.88, 0 50 M0 0 C0 12.83, 0 25.67, 0 50 M0 50 C81.6 50, 163.2 50, 220 50 M0 50 C78.57 50, 157.13 50, 220 50 M220 50 C220 60.55, 220 71.1, 220 90 M220 50 C220 59.2, 220 68.41, 220 90" stroke="#475569" stroke-width="2" fill="none"></path></g><g transform="translate(200 320) rotate(0 110 45)"><path d="M213.16 71.21 C215.55 77.76, 217.93 84.32, 220 90 M213.16 71.21 C214.92 76.03, 216.67 80.85, 220 90" stroke="#475569" stroke-width="2" fill="none"></path></g><g transform="translate(200 320) rotate(0 110 45)"><path d="M226.84 71.21 C224.45 77.76, 222.07 84.32, 220 90 M226.84 71.21 C225.08 76.03, 223.33 80.85, 220 90" stroke="#475569" stroke-width="2" fill="none"></path></g></g><mask></mask><g stroke-linecap="round"><g transform="translate(640 320) rotate(0 -110 45)"><path d="M0 0 C0 17.44, 0 34.88, 0 50 M0 0 C0 16.43, 0 32.87, 0 50 M0 50 C-45.33 50, -90.66 50, -220 50 M0 50 C-73.13 50, -146.25 50, -220 50 M-220 50 C-220 59.01, -220 68.02, -220 90 M-220 50 C-220 60.84, -220 71.68, -220 90" stroke="#475569" stroke-width="2" fill="none"></path></g><g transform="translate(640 320) rotate(0 -110 45)"><path d="M-226.84 71.21 C-224.45 77.76, -222.07 84.32, -220 90 M-226.84 71.21 C-224.59 77.38, -222.34 83.56, -220 90" stroke="#475569" stroke-width="2" fill="none"></path></g><g transform="translate(640 320) rotate(0 -110 45)"><path d="M-213.16 71.21 C-215.55 77.76, -217.93 84.32, -220 90 M-213.16 71.21 C-215.41 77.38, -217.66 83.56, -220 90" stroke="#475569" stroke-width="2" fill="none"></path></g></g><mask></mask><g stroke-linecap="round"><g transform="translate(420 482) rotate(0 0 34)"><path d="M0 0 C0 23.72, 0 47.43, 0 68 M0 0 C0 13.64, 0 27.29, 0 68" stroke="#475569" stroke-width="2" fill="none"></path></g><g transform="translate(420 482) rotate(0 0 34)"><path d="M-8.55 44.51 C-5.57 52.7, -2.59 60.89, 0 68 M-8.55 44.51 C-6.83 49.22, -5.12 53.94, 0 68" stroke="#475569" stroke-width="2" fill="none"></path></g><g transform="translate(420 482) rotate(0 0 34)"><path d="M8.55 44.51 C5.57 52.7, 2.59 60.89, 0 68 M8.55 44.51 C6.83 49.22, 5.12 53.94, 0 68" stroke="#475569" stroke-width="2" fill="none"></path></g></g><mask></mask></svg>